<mxfile host="app.diagrams.net" modified="2022-04-25T06:38:45.772Z" agent="5.0 (Windows NT 10.0; Win64; x64) AppleWebKit/537.36 (KHTML, like Gecko) Chrome/100.0.4896.88 Safari/537.36" etag="YDSonCftQXyRe07rOfY4" version="17.4.6" type="github">
  <diagram id="ucLLnZQ8SVYWdKBPr7jn" name="Page-1">
    <mxGraphModel dx="2272" dy="738" grid="1" gridSize="10" guides="1" tooltips="1" connect="1" arrows="1" fold="1" page="1" pageScale="1" pageWidth="850" pageHeight="1100" math="0" shadow="0">
      <root>
        <mxCell id="0" />
        <mxCell id="1" parent="0" />
        <mxCell id="67_KCsKABWCcsQ456eiA-28" value="" style="rounded=1;whiteSpace=wrap;html=1;dashed=1;strokeWidth=1;fontStyle=0;fontFamily=Times New Roman;fontSize=16;fillColor=none;strokeColor=#9673a6;" parent="1" vertex="1">
          <mxGeometry x="160" y="510" width="580" height="210" as="geometry" />
        </mxCell>
        <mxCell id="67_KCsKABWCcsQ456eiA-27" value="" style="rounded=1;whiteSpace=wrap;html=1;dashed=1;strokeWidth=1;fontStyle=0;fontFamily=Times New Roman;fontSize=16;fillColor=none;strokeColor=#6c8ebf;" parent="1" vertex="1">
          <mxGeometry x="160" y="100" width="580" height="210" as="geometry" />
        </mxCell>
        <mxCell id="67_KCsKABWCcsQ456eiA-10" style="edgeStyle=orthogonalEdgeStyle;rounded=1;orthogonalLoop=1;jettySize=auto;html=1;exitX=0.5;exitY=0;exitDx=0;exitDy=0;entryX=0;entryY=0.5;entryDx=0;entryDy=0;strokeWidth=1;fontStyle=0;fontFamily=Times New Roman;fontSize=16;fillColor=#d5e8d4;strokeColor=#82b366;" parent="1" source="67_KCsKABWCcsQ456eiA-1" target="67_KCsKABWCcsQ456eiA-3" edge="1">
          <mxGeometry relative="1" as="geometry" />
        </mxCell>
        <mxCell id="67_KCsKABWCcsQ456eiA-11" style="edgeStyle=orthogonalEdgeStyle;rounded=1;orthogonalLoop=1;jettySize=auto;html=1;exitX=0.5;exitY=1;exitDx=0;exitDy=0;entryX=0;entryY=0.5;entryDx=0;entryDy=0;strokeWidth=1;fontStyle=0;fontFamily=Times New Roman;fontSize=16;fillColor=#d5e8d4;strokeColor=#82b366;" parent="1" source="67_KCsKABWCcsQ456eiA-1" target="67_KCsKABWCcsQ456eiA-4" edge="1">
          <mxGeometry relative="1" as="geometry" />
        </mxCell>
        <mxCell id="67_KCsKABWCcsQ456eiA-1" value="&lt;span style=&quot;font-size: 16px;&quot;&gt;感兴趣知识点A&lt;/span&gt;" style="shape=parallelogram;perimeter=parallelogramPerimeter;whiteSpace=wrap;html=1;fixedSize=1;strokeWidth=1;fontStyle=0;fontFamily=Times New Roman;fontSize=16;rounded=1;fillColor=#d5e8d4;strokeColor=#82b366;" parent="1" vertex="1">
          <mxGeometry x="60" y="380" width="140" height="60" as="geometry" />
        </mxCell>
        <mxCell id="67_KCsKABWCcsQ456eiA-15" style="rounded=0;orthogonalLoop=1;jettySize=auto;html=1;entryX=0.75;entryY=0;entryDx=0;entryDy=0;strokeWidth=1;fontStyle=0;fontFamily=Times New Roman;fontSize=16;fillColor=#dae8fc;strokeColor=#6c8ebf;" parent="1" target="67_KCsKABWCcsQ456eiA-3" edge="1">
          <mxGeometry relative="1" as="geometry">
            <mxPoint x="370" y="195" as="sourcePoint" />
          </mxGeometry>
        </mxCell>
        <mxCell id="67_KCsKABWCcsQ456eiA-2" value="&lt;span style=&quot;font-size: 16px;&quot;&gt;文献库&lt;/span&gt;" style="shape=cylinder3;whiteSpace=wrap;html=1;boundedLbl=1;backgroundOutline=1;size=15;strokeWidth=1;fontStyle=0;fontFamily=Times New Roman;fontSize=16;fillColor=#dae8fc;strokeColor=#6c8ebf;" parent="1" vertex="1">
          <mxGeometry x="255" y="110" width="170" height="80" as="geometry" />
        </mxCell>
        <mxCell id="67_KCsKABWCcsQ456eiA-14" style="rounded=0;orthogonalLoop=1;jettySize=auto;html=1;exitX=0.25;exitY=0;exitDx=0;exitDy=0;entryX=0.318;entryY=1.038;entryDx=0;entryDy=0;entryPerimeter=0;strokeWidth=1;fontStyle=0;fontFamily=Times New Roman;fontSize=16;fillColor=#dae8fc;strokeColor=#6c8ebf;" parent="1" source="67_KCsKABWCcsQ456eiA-3" target="67_KCsKABWCcsQ456eiA-2" edge="1">
          <mxGeometry relative="1" as="geometry">
            <mxPoint x="310" y="200" as="targetPoint" />
          </mxGeometry>
        </mxCell>
        <mxCell id="67_KCsKABWCcsQ456eiA-17" style="edgeStyle=orthogonalEdgeStyle;rounded=0;orthogonalLoop=1;jettySize=auto;html=1;exitX=1;exitY=0.5;exitDx=0;exitDy=0;entryX=0;entryY=0.5;entryDx=0;entryDy=0;strokeWidth=1;fontStyle=0;fontFamily=Times New Roman;fontSize=16;fillColor=#dae8fc;strokeColor=#6c8ebf;" parent="1" source="67_KCsKABWCcsQ456eiA-3" target="67_KCsKABWCcsQ456eiA-7" edge="1">
          <mxGeometry relative="1" as="geometry" />
        </mxCell>
        <mxCell id="67_KCsKABWCcsQ456eiA-3" value="&lt;span style=&quot;font-size: 16px;&quot;&gt;Lucene全文检索&lt;/span&gt;" style="rounded=1;whiteSpace=wrap;html=1;strokeWidth=1;fontStyle=0;fontFamily=Times New Roman;fontSize=16;fillColor=#dae8fc;strokeColor=#6c8ebf;" parent="1" vertex="1">
          <mxGeometry x="280" y="230" width="120" height="60" as="geometry" />
        </mxCell>
        <mxCell id="67_KCsKABWCcsQ456eiA-12" style="rounded=0;orthogonalLoop=1;jettySize=auto;html=1;exitX=0.25;exitY=1;exitDx=0;exitDy=0;entryX=0.318;entryY=-0.037;entryDx=0;entryDy=0;entryPerimeter=0;strokeWidth=1;fontStyle=0;fontFamily=Times New Roman;fontSize=16;fillColor=#e1d5e7;strokeColor=#9673a6;" parent="1" source="67_KCsKABWCcsQ456eiA-4" target="67_KCsKABWCcsQ456eiA-16" edge="1">
          <mxGeometry relative="1" as="geometry">
            <mxPoint x="240" y="630" as="targetPoint" />
          </mxGeometry>
        </mxCell>
        <mxCell id="67_KCsKABWCcsQ456eiA-18" style="edgeStyle=orthogonalEdgeStyle;rounded=0;orthogonalLoop=1;jettySize=auto;html=1;exitX=0.5;exitY=0;exitDx=0;exitDy=0;entryX=0.5;entryY=1;entryDx=0;entryDy=0;strokeWidth=1;fontStyle=0;fontFamily=Times New Roman;fontSize=16;fillColor=#e1d5e7;strokeColor=#9673a6;" parent="1" source="67_KCsKABWCcsQ456eiA-4" target="67_KCsKABWCcsQ456eiA-8" edge="1">
          <mxGeometry relative="1" as="geometry" />
        </mxCell>
        <mxCell id="67_KCsKABWCcsQ456eiA-19" style="edgeStyle=orthogonalEdgeStyle;rounded=0;orthogonalLoop=1;jettySize=auto;html=1;exitX=1;exitY=0.5;exitDx=0;exitDy=0;entryX=0;entryY=0.5;entryDx=0;entryDy=0;strokeWidth=1;fontStyle=0;fontFamily=Times New Roman;fontSize=16;fillColor=#e1d5e7;strokeColor=#9673a6;" parent="1" source="67_KCsKABWCcsQ456eiA-4" target="67_KCsKABWCcsQ456eiA-6" edge="1">
          <mxGeometry relative="1" as="geometry" />
        </mxCell>
        <mxCell id="67_KCsKABWCcsQ456eiA-4" value="&lt;span style=&quot;font-size: 16px;&quot;&gt;知识匹配、抽取&lt;/span&gt;" style="rounded=1;whiteSpace=wrap;html=1;strokeWidth=1;fontStyle=0;fontFamily=Times New Roman;fontSize=16;fillColor=#e1d5e7;strokeColor=#9673a6;" parent="1" vertex="1">
          <mxGeometry x="280" y="530" width="120" height="60" as="geometry" />
        </mxCell>
        <mxCell id="67_KCsKABWCcsQ456eiA-13" style="rounded=0;orthogonalLoop=1;jettySize=auto;html=1;entryX=0.75;entryY=1;entryDx=0;entryDy=0;exitX=0.676;exitY=-0.037;exitDx=0;exitDy=0;exitPerimeter=0;strokeWidth=1;fontStyle=0;fontFamily=Times New Roman;fontSize=16;fillColor=#e1d5e7;strokeColor=#9673a6;" parent="1" source="67_KCsKABWCcsQ456eiA-16" target="67_KCsKABWCcsQ456eiA-4" edge="1">
          <mxGeometry relative="1" as="geometry">
            <mxPoint x="370" y="620" as="sourcePoint" />
          </mxGeometry>
        </mxCell>
        <mxCell id="67_KCsKABWCcsQ456eiA-21" style="edgeStyle=orthogonalEdgeStyle;rounded=0;orthogonalLoop=1;jettySize=auto;html=1;exitX=0.5;exitY=0;exitDx=0;exitDy=0;entryX=0.5;entryY=1;entryDx=0;entryDy=0;strokeWidth=1;fontStyle=0;fontFamily=Times New Roman;fontSize=16;fillColor=#e1d5e7;strokeColor=#9673a6;" parent="1" source="67_KCsKABWCcsQ456eiA-6" target="67_KCsKABWCcsQ456eiA-9" edge="1">
          <mxGeometry relative="1" as="geometry" />
        </mxCell>
        <mxCell id="67_KCsKABWCcsQ456eiA-26" style="edgeStyle=orthogonalEdgeStyle;rounded=1;orthogonalLoop=1;jettySize=auto;html=1;exitX=1;exitY=0.5;exitDx=0;exitDy=0;entryX=0;entryY=0.5;entryDx=0;entryDy=0;strokeWidth=1;fontStyle=0;fontFamily=Times New Roman;fontSize=16;fillColor=#e1d5e7;strokeColor=#9673a6;" parent="1" source="67_KCsKABWCcsQ456eiA-6" target="67_KCsKABWCcsQ456eiA-23" edge="1">
          <mxGeometry relative="1" as="geometry">
            <Array as="points">
              <mxPoint x="760" y="560" />
              <mxPoint x="760" y="410" />
            </Array>
          </mxGeometry>
        </mxCell>
        <mxCell id="67_KCsKABWCcsQ456eiA-6" value="&lt;span style=&quot;font-size: 16px;&quot;&gt;知识点A相关&lt;br style=&quot;font-size: 16px;&quot;&gt;三元组数据集&lt;/span&gt;" style="shape=parallelogram;perimeter=parallelogramPerimeter;whiteSpace=wrap;html=1;fixedSize=1;strokeWidth=1;fontStyle=0;fontFamily=Times New Roman;fontSize=16;rounded=1;fillColor=#e1d5e7;strokeColor=#9673a6;" parent="1" vertex="1">
          <mxGeometry x="590" y="530" width="120" height="60" as="geometry" />
        </mxCell>
        <mxCell id="67_KCsKABWCcsQ456eiA-25" style="edgeStyle=orthogonalEdgeStyle;rounded=1;orthogonalLoop=1;jettySize=auto;html=1;exitX=1;exitY=0.5;exitDx=0;exitDy=0;entryX=0;entryY=0.5;entryDx=0;entryDy=0;strokeWidth=1;fontStyle=0;fontFamily=Times New Roman;fontSize=16;fillColor=#dae8fc;strokeColor=#6c8ebf;" parent="1" source="67_KCsKABWCcsQ456eiA-7" target="67_KCsKABWCcsQ456eiA-23" edge="1">
          <mxGeometry relative="1" as="geometry">
            <Array as="points">
              <mxPoint x="760" y="260" />
              <mxPoint x="760" y="410" />
            </Array>
          </mxGeometry>
        </mxCell>
        <mxCell id="67_KCsKABWCcsQ456eiA-7" value="&lt;span style=&quot;font-size: 16px;&quot;&gt;知识点A相关&lt;br style=&quot;font-size: 16px;&quot;&gt;文献语料&lt;/span&gt;" style="shape=parallelogram;perimeter=parallelogramPerimeter;whiteSpace=wrap;html=1;fixedSize=1;strokeWidth=1;fontStyle=0;fontFamily=Times New Roman;fontSize=16;rounded=1;fillColor=#dae8fc;strokeColor=#6c8ebf;" parent="1" vertex="1">
          <mxGeometry x="590" y="230" width="120" height="60" as="geometry" />
        </mxCell>
        <mxCell id="67_KCsKABWCcsQ456eiA-39" style="edgeStyle=orthogonalEdgeStyle;rounded=0;orthogonalLoop=1;jettySize=auto;html=1;exitX=0.5;exitY=0;exitDx=0;exitDy=0;strokeWidth=1;fontStyle=0;fontFamily=Times New Roman;fontSize=16;fillColor=#e1d5e7;strokeColor=#9673a6;" parent="1" source="67_KCsKABWCcsQ456eiA-8" target="67_KCsKABWCcsQ456eiA-35" edge="1">
          <mxGeometry relative="1" as="geometry" />
        </mxCell>
        <mxCell id="67_KCsKABWCcsQ456eiA-8" value="&lt;span style=&quot;font-size: 16px;&quot;&gt;N元关系&lt;br style=&quot;font-size: 16px;&quot;&gt;子事件链表&lt;/span&gt;" style="shape=parallelogram;perimeter=parallelogramPerimeter;whiteSpace=wrap;html=1;fixedSize=1;strokeWidth=1;fontStyle=0;fontFamily=Times New Roman;fontSize=16;rounded=1;fillColor=#e1d5e7;strokeColor=#9673a6;" parent="1" vertex="1">
          <mxGeometry x="280" y="435.5" width="120" height="60" as="geometry" />
        </mxCell>
        <mxCell id="67_KCsKABWCcsQ456eiA-22" style="edgeStyle=orthogonalEdgeStyle;rounded=1;orthogonalLoop=1;jettySize=auto;html=1;exitX=0.5;exitY=0;exitDx=0;exitDy=0;strokeWidth=1;fontStyle=0;fontFamily=Times New Roman;fontSize=16;fillColor=#e1d5e7;strokeColor=#9673a6;" parent="1" source="67_KCsKABWCcsQ456eiA-9" target="67_KCsKABWCcsQ456eiA-3" edge="1">
          <mxGeometry relative="1" as="geometry" />
        </mxCell>
        <mxCell id="67_KCsKABWCcsQ456eiA-9" value="&lt;span style=&quot;font-size: 16px;&quot;&gt;感兴趣的&lt;br style=&quot;font-size: 16px;&quot;&gt;三元组数据集&lt;/span&gt;" style="shape=parallelogram;perimeter=parallelogramPerimeter;whiteSpace=wrap;html=1;fixedSize=1;strokeWidth=1;fontStyle=0;fontFamily=Times New Roman;fontSize=16;rounded=1;fillColor=#e1d5e7;strokeColor=#9673a6;" parent="1" vertex="1">
          <mxGeometry x="590" y="365.5" width="120" height="60" as="geometry" />
        </mxCell>
        <mxCell id="67_KCsKABWCcsQ456eiA-16" value="&lt;span style=&quot;font-size: 16px;&quot;&gt;知识库&lt;/span&gt;" style="shape=cylinder3;whiteSpace=wrap;html=1;boundedLbl=1;backgroundOutline=1;size=15;strokeWidth=1;fontStyle=0;fontFamily=Times New Roman;fontSize=16;fillColor=#e1d5e7;strokeColor=#9673a6;" parent="1" vertex="1">
          <mxGeometry x="255" y="630" width="170" height="80" as="geometry" />
        </mxCell>
        <mxCell id="67_KCsKABWCcsQ456eiA-23" value="&lt;span style=&quot;font-size: 16px;&quot;&gt;知识点A&lt;br style=&quot;font-size: 16px;&quot;&gt;信息检索结果&lt;/span&gt;" style="shape=parallelogram;perimeter=parallelogramPerimeter;whiteSpace=wrap;html=1;fixedSize=1;strokeWidth=1;fontStyle=0;fontFamily=Times New Roman;fontSize=16;rounded=1;fillColor=#f8cecc;strokeColor=#b85450;" parent="1" vertex="1">
          <mxGeometry x="810" y="380" width="120" height="60" as="geometry" />
        </mxCell>
        <mxCell id="67_KCsKABWCcsQ456eiA-29" value="&lt;h1 style=&quot;font-size: 16px;&quot;&gt;文献层&lt;/h1&gt;" style="text;html=1;strokeColor=none;fillColor=none;align=center;verticalAlign=middle;whiteSpace=wrap;rounded=0;dashed=1;strokeWidth=1;fontStyle=0;fontFamily=Times New Roman;fontSize=16;" parent="1" vertex="1">
          <mxGeometry x="510" y="140" width="70" height="20" as="geometry" />
        </mxCell>
        <mxCell id="67_KCsKABWCcsQ456eiA-30" value="&lt;h1 style=&quot;font-size: 16px;&quot;&gt;知识层&lt;/h1&gt;" style="text;html=1;strokeColor=none;fillColor=none;align=center;verticalAlign=middle;whiteSpace=wrap;rounded=0;dashed=1;strokeWidth=1;fontStyle=0;fontFamily=Times New Roman;fontSize=16;" parent="1" vertex="1">
          <mxGeometry x="520" y="650" width="70" height="20" as="geometry" />
        </mxCell>
        <mxCell id="67_KCsKABWCcsQ456eiA-32" style="edgeStyle=orthogonalEdgeStyle;rounded=0;orthogonalLoop=1;jettySize=auto;html=1;exitX=0.87;exitY=0.65;exitDx=0;exitDy=0;exitPerimeter=0;strokeWidth=1;fontStyle=0;fontFamily=Times New Roman;fontSize=16;" parent="1" target="67_KCsKABWCcsQ456eiA-1" edge="1">
          <mxGeometry relative="1" as="geometry">
            <mxPoint x="11.324999999999818" y="410.5" as="sourcePoint" />
          </mxGeometry>
        </mxCell>
        <mxCell id="67_KCsKABWCcsQ456eiA-33" value="" style="verticalLabelPosition=bottom;html=1;fillColor=#282828;strokeColor=none;verticalAlign=top;pointerEvents=1;align=center;shape=mxgraph.cisco_safe.people_places_things_icons.icon9;dashed=1;strokeWidth=1;fontStyle=0;fontFamily=Times New Roman;fontSize=16;" parent="1" vertex="1">
          <mxGeometry x="-20" y="387.5" width="50" height="45" as="geometry" />
        </mxCell>
        <mxCell id="67_KCsKABWCcsQ456eiA-34" value="&lt;span style=&quot;font-size: 16px;&quot;&gt;用户选择&lt;/span&gt;" style="rounded=1;whiteSpace=wrap;html=1;strokeWidth=1;fontStyle=0;fontFamily=Times New Roman;fontSize=16;fillColor=#ffe6cc;strokeColor=#d79b00;" parent="1" vertex="1">
          <mxGeometry x="610" y="460" width="80" height="30" as="geometry" />
        </mxCell>
        <mxCell id="67_KCsKABWCcsQ456eiA-40" style="edgeStyle=orthogonalEdgeStyle;rounded=0;orthogonalLoop=1;jettySize=auto;html=1;exitX=1;exitY=0.5;exitDx=0;exitDy=0;entryX=0;entryY=0.5;entryDx=0;entryDy=0;strokeWidth=1;fontStyle=0;fontFamily=Times New Roman;fontSize=16;fillColor=#e1d5e7;strokeColor=#9673a6;" parent="1" source="67_KCsKABWCcsQ456eiA-35" target="67_KCsKABWCcsQ456eiA-37" edge="1">
          <mxGeometry relative="1" as="geometry" />
        </mxCell>
        <mxCell id="67_KCsKABWCcsQ456eiA-35" value="&lt;span style=&quot;font-size: 16px;&quot;&gt;用户选择&lt;/span&gt;" style="rounded=1;whiteSpace=wrap;html=1;strokeWidth=1;fontStyle=0;fontFamily=Times New Roman;fontSize=16;fillColor=#ffe6cc;strokeColor=#d79b00;" parent="1" vertex="1">
          <mxGeometry x="300" y="380" width="80" height="30" as="geometry" />
        </mxCell>
        <mxCell id="67_KCsKABWCcsQ456eiA-41" style="edgeStyle=orthogonalEdgeStyle;rounded=0;orthogonalLoop=1;jettySize=auto;html=1;exitX=1;exitY=0.5;exitDx=0;exitDy=0;strokeWidth=1;fontStyle=0;fontFamily=Times New Roman;fontSize=16;fillColor=#e1d5e7;strokeColor=#9673a6;" parent="1" source="67_KCsKABWCcsQ456eiA-37" target="67_KCsKABWCcsQ456eiA-9" edge="1">
          <mxGeometry relative="1" as="geometry" />
        </mxCell>
        <mxCell id="67_KCsKABWCcsQ456eiA-37" value="&lt;span style=&quot;font-size: 16px;&quot;&gt;文本处理（实体识别、分词、停用词过滤）&lt;/span&gt;" style="rounded=1;whiteSpace=wrap;html=1;strokeWidth=1;fontStyle=0;fontFamily=Times New Roman;fontSize=16;fillColor=#ffe6cc;strokeColor=#d79b00;" parent="1" vertex="1">
          <mxGeometry x="410" y="374.25" width="170" height="42.5" as="geometry" />
        </mxCell>
        <mxCell id="67_KCsKABWCcsQ456eiA-38" value="&lt;span style=&quot;font-size: 16px;&quot;&gt;文本处理（实体识别、分词、关系属性过滤）&lt;/span&gt;" style="rounded=1;whiteSpace=wrap;html=1;strokeWidth=1;fontStyle=0;fontFamily=Times New Roman;fontSize=16;fillColor=#ffe6cc;strokeColor=#d79b00;" parent="1" vertex="1">
          <mxGeometry x="425" y="300" width="165" height="54" as="geometry" />
        </mxCell>
      </root>
    </mxGraphModel>
  </diagram>
</mxfile>
